<svg width="139" height="40" viewBox="0 0 139 40" fill="none" xmlns="http://www.w3.org/2000/svg">
<path d="M106.223 0.604008C107.072 -0.218836 108.427 -0.198464 109.25 0.649861C110.073 1.49842 110.052 2.85313 109.204 3.67612L97.8109 14.7239C96.9806 15.529 95.6608 15.529 94.8305 14.7239L89.6519 9.70303C88.8032 8.88007 88.7831 7.52409 89.6061 6.67541C90.4291 5.82734 91.7838 5.8068 92.6323 6.62956L96.3207 10.2061L106.223 0.604008Z" fill="#02A769"/>
<path d="M128.257 35.8345C131.919 35.8345 133.729 34.6877 133.689 32.3942C133.689 31.6699 133.327 31.1065 132.603 30.7042C131.878 30.3018 130.973 29.9598 129.887 29.6781C128.8 29.3964 127.613 29.0946 126.326 28.7727C125.038 28.4508 123.831 28.0082 122.704 27.4449C121.578 26.8816 120.652 26.1573 119.928 25.272C119.204 24.3466 118.841 23.2199 118.841 21.892C118.841 20.5642 119.043 19.4375 119.445 18.512C119.847 17.5463 120.451 16.7215 121.256 16.0374C122.986 14.5486 125.4 13.8042 128.498 13.8042C130.993 13.8042 133.387 14.2066 135.681 15.0113C136.124 15.1723 136.466 15.454 136.707 15.8563C136.989 16.2185 137.129 16.6209 137.129 17.0635C137.129 17.4659 136.928 17.8682 136.526 18.2706C136.164 18.673 135.802 18.8742 135.439 18.8742C135.077 18.8742 134.635 18.7937 134.112 18.6328C132.542 18.1499 130.812 17.9085 128.921 17.9085C127.03 17.9085 125.601 18.2304 124.636 18.8742C123.67 19.518 123.187 20.3228 123.187 21.2885C123.187 22.2139 123.549 22.898 124.273 23.3406C124.998 23.743 125.903 24.1051 126.99 24.427C128.116 24.7489 129.323 25.0507 130.611 25.3324C131.939 25.6141 133.146 26.0366 134.232 26.5999C136.808 27.9277 138.095 29.9598 138.095 32.6959C138.095 34.8286 137.29 36.5387 135.681 37.8263C133.991 39.2749 131.597 39.9991 128.498 39.9991C125.199 39.9991 122.221 39.2547 119.566 37.7659C119.002 37.3636 118.701 36.8807 118.66 36.3174C118.66 35.7138 118.841 35.2108 119.204 34.8084C119.606 34.3658 120.008 34.1445 120.411 34.1445C120.813 34.1445 121.336 34.2853 121.98 34.567C123.871 35.412 125.963 35.8345 128.257 35.8345Z" fill="#27272A"/>
<path d="M110.453 36.0152C111.338 36.0152 111.962 35.9548 112.324 35.8341C112.727 35.6732 113.149 35.5927 113.592 35.5927C114.034 35.5927 114.437 35.7738 114.799 36.1359C115.161 36.4578 115.342 36.9608 115.342 37.6448C115.342 38.2886 115.02 38.7514 114.376 39.0331C112.968 39.6769 111.761 39.9988 110.755 39.9988C109.749 39.9988 108.823 39.9384 107.978 39.8177C107.174 39.7372 106.389 39.4757 105.625 39.0331C103.814 37.9869 102.908 36.1359 102.908 33.4802V18.1495H99.4078C98.8042 18.1495 98.4823 17.8276 98.4421 17.1838C98.4421 16.9021 98.603 16.6406 98.9249 16.3992L105.625 9.82025C105.906 9.53859 106.188 9.39775 106.47 9.39775C106.751 9.35752 106.972 9.43799 107.133 9.63918C107.294 9.84037 107.375 10.0818 107.375 10.3635V14.2867H112.988C113.551 14.2867 114.014 14.4677 114.376 14.8299C114.738 15.192 114.919 15.6548 114.919 16.2181C114.919 16.7814 114.738 17.2442 114.376 17.6063C114.014 17.9685 113.551 18.1495 112.988 18.1495H107.375V33.1181C107.375 34.3654 107.757 35.2104 108.522 35.6531C108.924 35.8945 109.568 36.0152 110.453 36.0152Z" fill="#27272A"/>
<path d="M88.7835 16.3395C88.7835 15.6554 89.0048 15.1122 89.4474 14.7098C89.89 14.2672 90.4332 14.0459 91.077 14.0459C91.7208 14.0459 92.2439 14.2672 92.6463 14.7098C93.0487 15.1122 93.2499 15.6554 93.2499 16.3395V37.5248C93.2499 38.1283 93.0487 38.6514 92.6463 39.0941C92.2439 39.5367 91.7208 39.758 91.077 39.758C90.4332 39.758 89.89 39.5367 89.4474 39.0941C89.0048 38.6514 88.7835 38.1283 88.7835 37.5248V16.3395Z" fill="#27272A"/>
<path d="M61.9247 17.5461C64.3792 15.0514 67.1959 13.804 70.3746 13.804C73.5937 13.804 76.3298 14.9306 78.5832 17.184C81.0779 19.6787 82.3454 22.9179 82.3856 26.9015C82.3856 30.9253 81.1181 34.1845 78.5832 36.6793C76.2494 38.9326 73.4931 40.0392 70.3143 39.9989C67.1757 39.9989 64.3792 38.7515 61.9247 36.2568V37.5243C61.9247 38.1279 61.7034 38.651 61.2608 39.0936C60.8584 39.5362 60.3353 39.7575 59.6915 39.7575C59.0477 39.7575 58.5045 39.5362 58.0619 39.0936C57.6595 38.651 57.4583 38.1279 57.4583 37.5243V5.41436C57.4583 4.77055 57.6595 4.24746 58.0619 3.84508C58.5045 3.40246 59.0477 3.18115 59.6915 3.18115C60.3353 3.18115 60.8584 3.40246 61.2608 3.84508C61.7034 4.24746 61.9247 4.77055 61.9247 5.41436V17.5461ZM61.9247 32.0922C64.178 34.5869 66.7935 35.8142 69.7711 35.7739C73.5534 35.7739 76.0683 34.1041 77.3157 30.7643C77.718 29.6376 77.8991 28.35 77.8589 26.9015C77.8589 24.0848 77.1145 21.8717 75.6257 20.2622C74.1771 18.7734 72.2256 18.029 69.7711 18.029C66.7935 18.029 64.178 19.2562 61.9247 21.7108V32.0922Z" fill="#27272A"/>
<path d="M30.9624 15.5545C33.7389 14.3474 36.6159 13.764 39.5935 13.8042C42.9332 13.8042 45.5285 14.8303 47.3795 16.8824C49.0292 18.6529 49.8742 20.866 49.9145 23.5217V37.5245C49.9145 38.1281 49.673 38.6512 49.1902 39.0938C48.7476 39.5364 48.2044 39.7577 47.5605 39.7577C46.957 39.7577 46.4339 39.5364 45.9913 39.0938C45.5487 38.6512 45.3274 38.1281 45.3274 37.5245V36.257C44.4421 37.1825 43.2551 38.0476 41.7663 38.8524C40.2775 39.6169 38.3863 39.9991 36.0928 39.9991C33.7992 39.9991 31.8879 39.3352 30.3589 38.0074C28.7896 36.6393 28.005 34.8487 28.005 32.6356C28.005 30.1811 28.9304 28.2496 30.7814 26.8413C32.7933 25.3123 35.6502 24.5679 39.352 24.6081H45.3274V24.1856C45.3274 21.9725 44.7841 20.4032 43.6977 19.4778C42.6515 18.5523 41.0018 18.0895 38.7485 18.0895C36.8573 18.0895 34.6643 18.4718 32.1696 19.2363C31.9282 19.3168 31.6264 19.357 31.2642 19.357C30.9423 19.357 30.6003 19.1961 30.2382 18.8742C29.876 18.512 29.6748 17.9688 29.6346 17.2445C29.6346 16.48 30.0772 15.9167 30.9624 15.5545ZM32.5317 32.0924C32.5317 34.7481 34.2821 36.0558 37.7828 36.0156C39.3118 36.0156 40.7402 35.6534 42.0681 34.9291C43.4362 34.1646 44.5226 33.3196 45.3274 32.3942V28.2295H40.016C37.6822 28.2295 35.8513 28.5313 34.5235 29.1349C33.1956 29.6982 32.5317 30.684 32.5317 32.0924Z" fill="#27272A"/>
<path d="M12.6146 17.9686C9.71743 17.9686 7.00138 19.558 4.4664 22.7368V37.5243C4.4664 38.1279 4.24509 38.651 3.80247 39.0936C3.35986 39.5362 2.83677 39.7575 2.2332 39.7575C1.62963 39.7575 1.10654 39.5362 0.663924 39.0936C0.221308 38.651 0 38.1279 0 37.5243V5.41436C0 4.77055 0.201189 4.24746 0.603567 3.84508C1.04618 3.40246 1.58939 3.18115 2.2332 3.18115C2.83677 3.18115 3.35986 3.40246 3.80247 3.84508C4.24509 4.24746 4.4664 4.77055 4.4664 5.41436V18.3911C5.79425 17.023 6.94102 16.0372 7.90673 15.4336C9.75767 14.3472 11.5281 13.804 13.2181 13.804C14.9484 13.804 16.3567 14.0655 17.4431 14.5886C18.5295 15.0715 19.455 15.7756 20.2195 16.7011C21.7485 18.5118 22.5131 20.7652 22.5131 23.4611V37.5243C22.5131 38.1279 22.2918 38.651 21.8491 39.0936C21.4065 39.5362 20.8834 39.7575 20.2799 39.7575C19.6763 39.7575 19.1532 39.5362 18.7106 39.0936C18.268 38.651 18.0467 38.1279 18.0467 37.5243V23.944C18.0467 22.093 17.6242 20.6444 16.7792 19.5983C15.9342 18.5118 14.546 17.9686 12.6146 17.9686Z" fill="#27272A"/>
</svg>
