<svg width="18" height="18" viewBox="0 0 18 18" fill="none" xmlns="http://www.w3.org/2000/svg">
<path d="M9 0.921875C10.227 0.922408 11.4374 1.20295 12.54 1.74121C13.6427 2.27953 14.6091 3.06114 15.3643 4.02832C16.1194 4.99554 16.6437 6.12289 16.8984 7.32324C17.1531 8.5234 17.1311 9.76569 16.834 10.9561C16.5368 12.1466 15.9726 13.2545 15.1836 14.1943C14.3946 15.1341 13.4013 15.882 12.2803 16.3809C11.1593 16.8796 9.93904 17.1163 8.71289 17.0732C7.48667 17.0302 6.28641 16.708 5.20312 16.1318L5.18555 16.123L5.16602 16.1289L2.50586 17.0156C2.29405 17.0862 2.06692 17.0961 1.84961 17.0449C1.63212 16.9936 1.43243 16.8826 1.27441 16.7246C1.11661 16.5667 1.00538 16.3677 0.954102 16.1504C0.902901 15.9331 0.913809 15.7059 0.984375 15.4941L1.87109 12.834L1.87695 12.8145L1.86816 12.7969C1.21271 11.5659 0.886941 10.1861 0.922852 8.79199C0.95881 7.39779 1.35516 6.03642 2.07324 4.84082C2.79132 3.64526 3.80667 2.65548 5.02051 1.96875C6.2343 1.28212 7.60545 0.921571 9 0.921875ZM12.457 3.00391C11.137 2.24264 9.60245 1.93805 8.0918 2.1377C6.58117 2.33742 5.17842 3.03033 4.10156 4.1084C3.02466 5.18666 2.33358 6.59053 2.13574 8.10156C1.93794 9.61255 2.24386 11.1467 3.00684 12.4658C3.04777 12.5367 3.07284 12.6158 3.08105 12.6973C3.08921 12.7786 3.08062 12.8609 3.05469 12.9385L2.08008 15.8604L2.05078 15.9492L2.13965 15.9199L5.06152 14.9443C5.13913 14.9185 5.22137 14.9097 5.30273 14.918C5.38421 14.9263 5.46333 14.9521 5.53418 14.9932C6.58746 15.6025 7.78318 15.9227 9 15.9219C10.5239 15.9216 12.0051 15.4182 13.2139 14.4902C14.4226 13.5622 15.2916 12.2611 15.6855 10.7891C16.0794 9.31705 15.9763 7.7562 15.3926 6.34863C14.8089 4.94102 13.777 3.76525 12.457 3.00391ZM7.125 4.04688C7.23298 4.04661 7.33885 4.07696 7.43066 4.13379C7.52236 4.19058 7.59663 4.27153 7.64453 4.36816L8.89453 6.86816C8.93984 6.95908 8.96037 7.06073 8.9541 7.16211C8.94776 7.26351 8.91464 7.36168 8.8584 7.44629L8.07715 8.61816L8.09082 8.64258C8.38472 9.1772 8.82476 9.61723 9.35938 9.91113L9.38379 9.9248L9.4082 9.90918L10.5557 9.14355C10.6403 9.08729 10.7384 9.05419 10.8398 9.04785C10.9413 9.04154 11.0428 9.06209 11.1338 9.10742L13.6338 10.3574C13.7298 10.4055 13.8108 10.4799 13.8672 10.5713C13.9234 10.6626 13.9532 10.7678 13.9531 10.875L13.9385 11.1768C13.9089 11.4774 13.8348 11.7726 13.7188 12.0527C13.5641 12.4262 13.3375 12.7659 13.0518 13.0518C12.7659 13.3376 12.4262 13.5641 12.0527 13.7188C11.6793 13.8734 11.2792 13.9531 10.875 13.9531C9.06473 13.9511 7.32891 13.2312 6.04883 11.9512C4.76875 10.6711 4.04894 8.9353 4.04688 7.125L4.05078 6.97266C4.08846 6.21176 4.407 5.48949 4.94824 4.94824C5.52549 4.37104 6.30867 4.04688 7.125 4.04688ZM6.74805 5.24023C6.31245 5.32742 5.92029 5.56269 5.63867 5.90625C5.35704 6.24993 5.203 6.68067 5.20312 7.125C5.20479 8.62875 5.8029 10.0705 6.86621 11.1338C7.92951 12.197 9.37129 12.7952 10.875 12.7969C11.3197 12.7983 11.751 12.6453 12.0957 12.3643C12.4404 12.083 12.6777 11.691 12.7656 11.2549L12.7725 11.2197L12.7402 11.2031L10.9434 10.3066L10.9189 10.2939L10.8965 10.3096L9.75488 11.0703C9.67479 11.123 9.58281 11.1548 9.4873 11.1631C9.41578 11.1693 9.34392 11.1626 9.27539 11.1426L9.20703 11.1182L9.0127 11.0303C8.05266 10.57 7.29176 9.77297 6.87695 8.78711C6.84052 8.69943 6.82582 8.60427 6.83496 8.50977C6.84416 8.41515 6.87698 8.32423 6.92969 8.24512L7.69238 7.10938L7.70801 7.08594L7.69531 7.06152L6.79883 5.26465L6.7832 5.2334L6.74805 5.24023Z" fill="#116DDC" stroke="#116DDC" stroke-width="0.09375"/>
</svg>
